<svg id="Layer_1" data-name="Layer 1" xmlns="http://www.w3.org/2000/svg" viewBox="0 0 28 28"><defs><style>.cls-1{fill:none;stroke:#fff;stroke-linecap:round;stroke-linejoin:round;}</style></defs><title>cms-white</title><path class="cls-1" d="M23.5,9a3.72,3.72,0,0,1-1,2.4l-.08.09a.08.08,0,0,1,0,0,8.42,8.42,0,0,1-3.83,2.28c-.2.07-.42.13-.64.19l-.29.08A15.7,15.7,0,0,1,14,14.5a15.7,15.7,0,0,1-3.66-.42L10.05,14c-.22-.06-.44-.12-.64-.19a8.42,8.42,0,0,1-3.83-2.28.08.08,0,0,1,0,0l-.08-.09A3.72,3.72,0,0,1,4.5,9c0-3,4.25-5.5,9.5-5.5S23.5,6,23.5,9Z"/><path class="cls-1" d="M23.5,14a3.72,3.72,0,0,1-1,2.4l-.08.09a.08.08,0,0,1,0,0,8.42,8.42,0,0,1-3.83,2.28c-.29.1-.61.19-.93.27a16.16,16.16,0,0,1-7.32,0c-.32-.08-.64-.17-.93-.27a8.42,8.42,0,0,1-3.83-2.28.08.08,0,0,1,0,0l-.08-.09a3.72,3.72,0,0,1-1-2.4,3.81,3.81,0,0,1,1-2.51.08.08,0,0,0,0,0,8.42,8.42,0,0,0,3.83,2.28c.2.07.42.13.64.19l.29.08A15.7,15.7,0,0,0,14,14.5a15.7,15.7,0,0,0,3.66-.42l.29-.08c.22-.06.44-.12.64-.19a8.42,8.42,0,0,0,3.83-2.28.08.08,0,0,0,0,0A3.81,3.81,0,0,1,23.5,14Z"/><path class="cls-1" d="M23.5,19a3.72,3.72,0,0,1-1,2.4.49.49,0,0,1-.12.13,8.42,8.42,0,0,1-3.83,2.28c-.29.1-.61.19-.93.27a16.16,16.16,0,0,1-7.32,0c-.32-.08-.64-.17-.93-.27a8.42,8.42,0,0,1-3.83-2.28.49.49,0,0,1-.12-.13,3.72,3.72,0,0,1-1-2.4,3.81,3.81,0,0,1,1-2.51.08.08,0,0,0,0,0,8.42,8.42,0,0,0,3.83,2.28c.29.1.61.19.93.27a16.16,16.16,0,0,0,7.32,0c.32-.08.64-.17.93-.27a8.42,8.42,0,0,0,3.83-2.28.08.08,0,0,0,0,0A3.81,3.81,0,0,1,23.5,19Z"/></svg>