<?xml version="1.0" encoding="utf-8"?>
<!-- Generator: Adobe Illustrator 25.0.0, SVG Export Plug-In . SVG Version: 6.00 Build 0)  -->
<svg version="1.1" id="Layer_1" xmlns="http://www.w3.org/2000/svg" xmlns:xlink="http://www.w3.org/1999/xlink" x="0px" y="0px"
	 viewBox="0 0 393.6 77.6" style="enable-background:new 0 0 393.6 77.6;" xml:space="preserve">
<style type="text/css">
	.st0{fill:#FFFFFF;}
</style>
<g>
	<path class="st0" d="M0,0.2h24.6L41.7,55L58.6,0.2h23.9L54.2,76.3H28.7L0,0.2z"/>
	<path class="st0" d="M124.5,63.7H97.8l-3.7,12.6h-24L98.7,0.2h25.7L153,76.3h-24.6L124.5,63.7z M119.6,47.3l-8.4-27.4l-8.3,27.4
		H119.6z"/>
	<path class="st0" d="M200,0.2h23.5v45.3c0,4.5-0.7,8.7-2.1,12.7c-1.4,4-3.6,7.5-6.6,10.5s-6.1,5.1-9.4,6.3
		c-4.6,1.7-10.1,2.5-16.5,2.5c-3.7,0-7.7-0.3-12.1-0.8c-4.4-0.5-8-1.5-11-3.1c-2.9-1.5-5.6-3.7-8.1-6.6c-2.4-2.8-4.1-5.8-5-8.8
		c-1.5-4.8-2.2-9.1-2.2-12.9V0.2H174v46.4c0,4.2,1.2,7.4,3.5,9.7s5.5,3.5,9.6,3.5c4,0,7.2-1.1,9.5-3.4c2.3-2.3,3.5-5.6,3.5-9.8
		L200,0.2L200,0.2z"/>
	<path class="st0" d="M232.6,0.2h23.5v57.4h36.7v18.7h-60.2L232.6,0.2L232.6,0.2z"/>
	<path class="st0" d="M286.4,0.2h71.5V19h-24v57.3h-23.5V19h-24V0.2z"/>
</g>
<g>
	<path class="st0" d="M380.4,0c-7.3,0-13.2,5.9-13.2,13.2s5.9,13.2,13.2,13.2c7.3,0,13.2-5.9,13.2-13.2S387.7,0,380.4,0z
		 M380.4,23.7c-5.8,0-10.5-4.7-10.5-10.5s4.7-10.5,10.5-10.5s10.5,4.7,10.5,10.5S386.2,23.7,380.4,23.7z"/>
	<path class="st0" d="M380.4,17.2c-2.2,0-4-1.8-4-4s1.8-4,4-4c1.6,0,3,0.9,3.6,2.3h3.6c-0.8-3.2-3.7-5.6-7.2-5.6
		c-4.1,0-7.4,3.3-7.4,7.4s3.3,7.4,7.4,7.4c3.5,0,6.5-2.5,7.2-5.8h-3.5C383.5,16.2,382.1,17.2,380.4,17.2z"/>
</g>
</svg>
