<?xml version="1.0" encoding="utf-8"?>
<!-- Generator: Adobe Illustrator 25.0.0, SVG Export Plug-In . SVG Version: 6.00 Build 0)  -->
<svg version="1.1" id="Layer_1" xmlns="http://www.w3.org/2000/svg" xmlns:xlink="http://www.w3.org/1999/xlink" x="0px" y="0px"
	 viewBox="0 0 124.6 124.6" style="enable-background:new 0 0 124.6 124.6;" xml:space="preserve">
<style type="text/css">
	.st0{fill:#FFFFFF;}
	.st1{fill:#1D1D1B;}
</style>
<g>
	<path class="st0" d="M62.3,0C27.9,0,0,27.9,0,62.3c0,34.4,27.9,62.3,62.3,62.3c34.4,0,62.3-27.9,62.3-62.3
		C124.6,27.9,96.7,0,62.3,0z M118,60l-4.9,0.1l0.1,2.7l-0.6,0l-0.1-3.4l5.5-0.1L118,60z M117.1,51.8l-5,3.3l-0.2-0.8l1.5-1L113,51
		l-1.8-0.3l-0.1-0.8l5.8,1L117.1,51.8z M113,38.9l0.4,1l-3.1,2.7c-0.3,0.2-0.5,0.4-0.7,0.5c0.2,0,0.5,0,0.9-0.1l4-0.2l0.4,0.9
		l-5.1,2.1l-0.3-0.7l4.3-1.7l-4.9,0.2l-0.2-0.6l3.7-3.2l-4.3,1.8l-0.3-0.7L113,38.9z M83.2,10.6l0.7,0.3l-2.1,5.1l-0.7-0.3
		L83.2,10.6z M17.4,29.3l5.8,1.4l-0.5,0.7l-1.7-0.5l-1.4,1.9l1,1.5l-0.5,0.6l-3.2-4.9L17.4,29.3z M10.6,41.1l0.6,0.2l-0.6,1.7
		l4.6,1.7l-0.2,0.7l-4.6-1.7l-0.6,1.7l-0.6-0.2L10.6,41.1z M7.1,54.1l3.1,0.5c0.5,0.1,0.8,0.1,1.1,0c0.2,0,0.4-0.2,0.6-0.4
		c0.2-0.2,0.3-0.4,0.3-0.8c0.1-0.5,0-0.9-0.2-1.2c-0.2-0.3-0.6-0.5-1.3-0.6l-3.1-0.5l0.1-0.7l3.1,0.5c0.5,0.1,1,0.2,1.3,0.4
		c0.3,0.2,0.5,0.4,0.7,0.8c0.1,0.4,0.2,0.8,0.1,1.3c-0.1,0.5-0.2,0.9-0.5,1.2c-0.2,0.3-0.5,0.5-0.9,0.6c-0.4,0.1-0.8,0.1-1.4,0
		L7,54.9L7.1,54.1z M6.5,60.3l0.7,0l0,1.8l4.9,0l0,0.7l-4.9,0l0,1.8l-0.7,0L6.5,60.3z M7.1,70.1l5.4-0.8l0.1,0.7l-5.4,0.8L7.1,70.1z
		 M9.4,80.3l-1.2-4.2l0.6-0.2l0.5,1.7l4.7-1.4l0.2,0.7l-4.7,1.4l0.5,1.7L9.4,80.3z M16.7,84.9c-0.1-0.2-0.3-0.5-0.4-0.6
		C16.1,84.1,16,84,15.8,84c-0.2,0-0.3,0-0.5,0.1c-0.2,0.1-0.3,0.2-0.3,0.3c-0.1,0.1-0.1,0.3-0.1,0.6c0,0.2,0.1,0.5,0.2,1
		c0.1,0.5,0.2,0.9,0.2,1.1c0,0.3-0.1,0.5-0.2,0.8c-0.1,0.2-0.3,0.4-0.5,0.5c-0.2,0.1-0.5,0.2-0.8,0.1c-0.3,0-0.6-0.2-0.8-0.4
		c-0.2-0.2-0.5-0.5-0.6-0.8c-0.2-0.4-0.3-0.7-0.3-1.1c0-0.3,0-0.6,0.2-0.9c0.2-0.3,0.4-0.5,0.7-0.6l0.4,0.6
		c-0.3,0.2-0.5,0.4-0.5,0.7c-0.1,0.3,0,0.6,0.2,1c0.2,0.4,0.4,0.6,0.6,0.8c0.2,0.1,0.5,0.1,0.7,0c0.2-0.1,0.3-0.2,0.3-0.4
		c0.1-0.2,0-0.6-0.1-1.2c-0.1-0.6-0.2-1-0.2-1.2c0-0.4,0.1-0.6,0.2-0.9c0.1-0.2,0.3-0.4,0.6-0.6c0.3-0.1,0.5-0.2,0.9-0.1
		c0.3,0,0.6,0.2,0.9,0.4c0.3,0.2,0.5,0.5,0.7,0.9c0.2,0.4,0.3,0.9,0.4,1.2c0,0.4-0.1,0.7-0.2,1c-0.2,0.3-0.4,0.5-0.8,0.7l-0.4-0.6
		c0.2-0.2,0.4-0.3,0.5-0.5c0.1-0.2,0.2-0.4,0.1-0.7C17,85.4,16.9,85.1,16.7,84.9z M18.5,96.9l1.7-4.9l-3.5,2.6L16.4,94l4.4-3.3
		l0.4,0.6l-1.7,4.9l3.5-2.6l0.4,0.6L19,97.5L18.5,96.9z M23.4,102.3l-0.5-0.5l3.9-3.9l0.5,0.5L23.4,102.3z M26,27.5l-3.9-3.9
		l0.5-0.5l3.4,3.5l1.9-1.9l0.5,0.5L26,27.5z M32.2,22l-0.6,0.4l-1.4-5.7l0.6-0.4l5,3.2L35.1,20l-1.5-1l-1.9,1.3L32.2,22z M35,107.6
		c-0.5,0-1-0.4-1-1c0-0.5,0.4-1,1-1c0.5,0,1,0.4,1,1C36,107.1,35.5,107.5,35,107.6z M39.5,17.4l-2.2-5l1-0.4l2.8,3
		c0.3,0.3,0.4,0.5,0.6,0.6c0-0.2-0.1-0.5-0.1-0.9l-0.3-4l0.9-0.4l2.2,5l-0.6,0.3l-1.9-4.2l0.4,4.9l-0.6,0.3l-3.4-3.6l1.9,4.3
		L39.5,17.4z M46.3,110.2l-3-1.3l-0.7,1.5l2.8,1.2l-0.3,0.6l-2.8-1.2l-0.7,1.7l3.1,1.3l-0.3,0.6l-3.7-1.6l2.2-5l3.6,1.6L46.3,110.2z
		 M51.7,116.8l-0.7-0.2l1.2-5.3l0.7,0.2L51.7,116.8z M57.9,12.1c-0.3,0.2-0.6,0.3-1,0.3c-0.5,0.1-0.9,0-1.3-0.1
		c-0.4-0.1-0.6-0.3-0.9-0.6c-0.2-0.3-0.4-0.6-0.4-1l0.7-0.1c0.1,0.3,0.2,0.5,0.3,0.6c0.1,0.2,0.3,0.3,0.6,0.4
		c0.3,0.1,0.5,0.1,0.9,0.1c0.3,0,0.5-0.1,0.7-0.2c0.2-0.1,0.3-0.2,0.4-0.4c0.1-0.2,0.1-0.3,0.1-0.5c0-0.2-0.1-0.3-0.2-0.4
		c-0.1-0.1-0.3-0.2-0.5-0.3c-0.2,0-0.5-0.1-1-0.2c-0.5-0.1-0.9-0.1-1.1-0.2c-0.3-0.1-0.5-0.3-0.6-0.4c-0.2-0.2-0.2-0.4-0.3-0.7
		c0-0.3,0-0.5,0.1-0.8c0.1-0.3,0.3-0.5,0.6-0.6c0.3-0.2,0.6-0.3,1-0.3c0.4,0,0.8,0,1.1,0.1C57.5,7,57.8,7.1,58,7.4
		c0.2,0.2,0.3,0.5,0.4,0.8l-0.7,0.1c-0.1-0.3-0.2-0.6-0.5-0.7c-0.2-0.2-0.6-0.2-1-0.2c-0.4,0-0.7,0.2-0.9,0.3
		C55.1,7.9,55,8.1,55,8.4c0,0.2,0.1,0.4,0.3,0.5c0.2,0.1,0.5,0.2,1.1,0.3c0.6,0.1,1,0.1,1.2,0.2c0.3,0.1,0.6,0.3,0.8,0.5
		c0.2,0.2,0.3,0.5,0.3,0.8c0,0.3,0,0.6-0.2,0.9C58.5,11.7,58.2,11.9,57.9,12.1z M63.7,118l-0.7,0l0.1-4.6l-1.7,4.5l-0.7,0l-1.5-4.7
		l-0.1,4.7l-0.7,0l0.1-5.5l1.1,0l1.2,3.9c0.1,0.4,0.2,0.6,0.2,0.8c0.1-0.2,0.2-0.5,0.3-0.9l1.4-3.8l1,0L63.7,118z M68,7.4l-3.2-0.2
		l-0.1,1.7l3,0.2l0,0.6l-3-0.2l-0.1,1.9l3.4,0.2l0,0.6L63.7,12L64,6.5l4,0.3L68,7.4z M74.1,116.6l-1-1.5l-2.2,0.4l-0.3,1.7l-0.8,0.2
		l1-5.8l0.8-0.2l3.3,4.9L74.1,116.6z M76.9,14.1L76,13.9l-1.2-3.2l-1.1,0.6l-0.5,1.9L72.5,13l1.3-5.3l0.7,0.2l-0.7,2.6l3.3-2l1,0.2
		l-2.8,1.6L76.9,14.1z M84.1,112.3c0,0.3-0.2,0.6-0.4,0.8c-0.2,0.3-0.5,0.5-0.9,0.6c-0.5,0.2-0.9,0.3-1.2,0.3c-0.4,0-0.7-0.1-1-0.3
		c-0.3-0.2-0.5-0.4-0.7-0.8l0.6-0.3c0.1,0.2,0.3,0.4,0.5,0.5c0.2,0.1,0.4,0.2,0.7,0.2c0.3,0,0.6-0.1,0.8-0.2
		c0.3-0.1,0.5-0.2,0.6-0.4c0.2-0.2,0.3-0.3,0.3-0.5c0-0.2,0-0.3,0-0.5c-0.1-0.2-0.2-0.3-0.3-0.4c-0.1-0.1-0.3-0.1-0.6-0.1
		c-0.2,0-0.5,0.1-1,0.1c-0.5,0.1-0.9,0.1-1.1,0.1c-0.3,0-0.5-0.1-0.7-0.2c-0.2-0.1-0.3-0.3-0.5-0.5c-0.1-0.3-0.1-0.5-0.1-0.8
		c0-0.3,0.2-0.5,0.4-0.8c0.2-0.2,0.5-0.4,0.8-0.6c0.4-0.2,0.7-0.2,1.1-0.3c0.3,0,0.6,0.1,0.9,0.2c0.3,0.2,0.5,0.4,0.6,0.7l-0.6,0.3
		c-0.2-0.3-0.4-0.5-0.7-0.6c-0.3-0.1-0.6,0-1,0.1c-0.4,0.2-0.7,0.4-0.8,0.6c-0.1,0.2-0.1,0.4,0,0.7c0.1,0.2,0.2,0.3,0.4,0.4
		c0.2,0.1,0.6,0,1.2-0.1c0.6-0.1,1-0.2,1.3-0.2c0.4,0,0.6,0.1,0.9,0.2c0.2,0.1,0.4,0.4,0.5,0.6C84.1,111.7,84.2,112,84.1,112.3z
		 M88.2,19.2l-0.6-0.4l2.5-4.2l-1.6-0.9l0.3-0.6l3.8,2.2l-0.3,0.6L90.6,15L88.2,19.2z M92.8,107.6c-0.5,0-1-0.4-1-1c0-0.5,0.4-1,1-1
		c0.5,0,1,0.4,1,1C93.7,107.1,93.3,107.6,92.8,107.6z M94.6,21.6l-1.5,0.9L92.5,22l5.1-2.9l0.6,0.5l-1.8,5.7l-0.6-0.5l0.6-1.7
		L94.6,21.6z M101.9,101.6l-5.5-2.3l0.6-0.6l1.6,0.7l1.6-1.6l-0.8-1.6l0.5-0.6l2.4,5.4L101.9,101.6z M102,31.4l0.4-1.3
		c0.1-0.4,0.2-0.7,0.2-0.9c0-0.2,0.1-0.4,0-0.5c0-0.1,0-0.2-0.1-0.3c0-0.1-0.1-0.2-0.2-0.3l-0.5-0.6L100,29l-0.5-0.6l4.2-3.5
		l1.6,1.9c0.3,0.4,0.5,0.7,0.6,1c0.1,0.3,0.1,0.5,0,0.8c-0.1,0.3-0.3,0.5-0.5,0.7c-0.3,0.3-0.6,0.4-1,0.3c-0.4,0-0.7-0.2-1.1-0.6
		c0.1,0.2,0.1,0.4,0.1,0.5c0,0.3-0.1,0.6-0.2,0.9l-0.5,1.7L102,31.4z M107.2,95.5l-4.4-3.2l0.4-0.6l4.4,3.2L107.2,95.5z M112.1,87.2
		c0,0.3-0.1,0.7-0.3,1c-0.2,0.4-0.4,0.6-0.7,0.9c-0.3,0.2-0.5,0.3-0.8,0.4c-0.3,0-0.6,0-0.9-0.2l0.3-0.6c0.3,0.1,0.6,0.1,0.9,0
		c0.3-0.1,0.5-0.4,0.7-0.7c0.2-0.4,0.3-0.7,0.2-1c0-0.3-0.2-0.4-0.4-0.5c-0.2-0.1-0.4-0.1-0.5,0c-0.2,0.1-0.5,0.3-0.9,0.8
		c-0.4,0.5-0.7,0.8-0.9,0.9c-0.3,0.2-0.6,0.3-0.8,0.4c-0.3,0-0.5,0-0.8-0.2c-0.3-0.1-0.5-0.3-0.6-0.6c-0.2-0.3-0.2-0.6-0.2-0.9
		c0-0.3,0.1-0.7,0.3-1c0.2-0.4,0.5-0.8,0.8-1c0.3-0.2,0.6-0.4,0.9-0.4c0.3,0,0.7,0,1,0.2l-0.3,0.6c-0.3-0.1-0.5-0.1-0.7-0.1
		c-0.2,0-0.4,0.1-0.6,0.3c-0.2,0.2-0.4,0.4-0.5,0.7c-0.1,0.2-0.2,0.5-0.2,0.7c0,0.2,0,0.4,0.1,0.6c0.1,0.2,0.2,0.3,0.3,0.4
		c0.2,0.1,0.3,0.1,0.5,0.1c0.2,0,0.3-0.1,0.5-0.3c0.1-0.1,0.4-0.4,0.7-0.7c0.3-0.4,0.6-0.7,0.8-0.8c0.2-0.2,0.5-0.3,0.7-0.3
		c0.2,0,0.5,0,0.7,0.1c0.2,0.1,0.4,0.3,0.6,0.6C112.1,86.6,112.2,86.9,112.1,87.2z M116,77.5l-1.9,0.5c-0.4,0.1-0.7,0.2-1.1,0.3
		c0.2,0.2,0.5,0.5,0.7,0.9l1.2,1.5l-0.3,0.8l-2.4-3.1l-2.2-0.7l0.2-0.7l2.2,0.7l3.7-1.1L116,77.5z M117.5,70.4l-5.8,1.5l0.1-0.8
		l1.7-0.4l0.3-2.3l-1.6-0.8l0.1-0.8l5.2,2.9L117.5,70.4z"/>
	<path class="st1" d="M91.5,81c0,0-1.7-2.4-4.5-0.6L69.7,91.6c0,0-1.2,0.4-2.4-0.4L48.9,80.6l0-0.8L67.5,90c0,0,3.1,1.5,5-1.6
		c0,0,1.4-2.7-1.6-4.7L48.7,68.3l-26-0.6L37.2,86l6.5,0l24.9,14.3l22.9-15.2C91.4,85.1,93.4,83.5,91.5,81z M76.4,85.6l7.7-4.8
		c3.8-2.7,1.8-5.2,1.8-5.2c-2.1-2.4-5.4-0.1-5.4-0.1l-9.8,6.2L76.4,85.6z M69.7,81.1l6.6-4.1c3.3-2.3,1.6-4.5,1.6-4.5
		c-1.8-2.1-4.7-0.1-4.7-0.1l-8.4,5.4L69.7,81.1z M69.5,73.3c2.9-2,1.4-3.9,1.4-3.9c-1.6-1.8-4.1,0-4.1,0L59.5,74l4.3,2.9L69.5,73.3z
		"/>
	<path class="st1" d="M42,65.5l-6.7,0.2l19.6-6.6l-0.1-3c0,0-4,0.2-4.4-2.5c0,0-0.1-1.1,1.2-1.8c0,0-1.5-1-0.8-2.8
		c0,0,0.6-1.4,3.1-1.4c0,0-1.4-2.8,2.2-2.7l0.2,0c0,0,0.6-4.7,2.7-2.3c0,0,1.5-2.1,4.2-1.8c0,0-2.4-7.2,3.7-6l0.6-0.4
		c0,0-1.1-5.5,5.7-3.3c0,0,0.3-3.6,8.6-1.5c0,0-5-0.9-8.1,2.8c0,0-5.8-3.2-4.9,4.7c0,0-7.1-3.5-3.8,6.5c0,0-2.9-0.2-2.8,2.2
		c0,0,0,2.5,4.6,2.4c0,0-2,2.6,1.2,4.2l4,0l-0.1-4.3c0,0,0.2-1.4-1.1-1.4c0,0-3,0-3.5,0.2c0,0,0.6-0.7,3.1-0.9c0,0-1.3-2-1.5-3
		c0,0-0.4-1.5,0.5-1.4c0,0,0.7,0.1,0.4,1.8c0,0,0.1,1.3,1.9,2.3c0,0,2.2-0.2,2.1,3.2l0.2,3.1c0,0-0.1,2.1,1.4,2.6c0,0,0.1,0,0.1,0
		c1.4,0.5,2.5,1.7,2.5,2.5c0,0,0,0.1,0,0.1c0,0.7-5.8,1.3-8.2,4.1c0,0-1.4,1.3-4.7,4.6l-18.3-0.2l21.6-6.6L68,56.4l-2.9-0.2
		c0,0-1.9,0-1.9-1.8l-0.1-2.8c0,0-4.3,0.3-4.4-4l-0.1-4.3l-1,0l-0.4,3c0,0-3.3-0.4-1.4,1.9c0,0-5.2,1.8-2.1,3.8c0,0-2.4,1.7,0.8,2.2
		c0,0,2-0.2,2.2,0.5l0-0.7c0,0-1.4-1.5-1.4-2.1c0,0,1.6,1.5,1.9,1.5l0-1.2c0,0-0.9-1.5-0.4-2.4c0,0,0.4,1.6,1.2,2.2
		c0,0,0.3-0.6,0.7-0.6c0,0,0.5-0.1-0.6,1.4l0.3,7.6L42,65.5z"/>
	<path class="st0" d="M100.6,100.4c0.5,0.2,0.8,0.4,1.1,0.5c-0.2-0.3-0.4-0.6-0.5-0.9l-0.7-1.6l-1.3,1.3L100.6,100.4z"/>
	<path class="st0" d="M18.7,30.3c-0.5-0.1-0.9-0.2-1.2-0.4c0.2,0.3,0.5,0.6,0.7,0.9l1,1.4l1.1-1.5L18.7,30.3z"/>
	<path class="st0" d="M97.1,20.9c0.2-0.5,0.3-0.8,0.4-1.1c-0.3,0.2-0.6,0.4-0.9,0.6l-1.5,0.9l1.4,1.2L97.1,20.9z"/>
	<path class="st0" d="M71.3,113.3l-0.3,1.7l1.8-0.4l-0.9-1.4c-0.3-0.4-0.5-0.8-0.6-1C71.4,112.5,71.3,112.9,71.3,113.3z"/>
	<path class="st0" d="M103.9,28.7c0.2,0.1,0.3,0.1,0.5,0.1c0.2,0,0.3-0.1,0.5-0.2c0.2-0.2,0.3-0.4,0.3-0.6c0-0.3-0.1-0.5-0.4-0.8
		l-1.1-1.3l-1.4,1.2l1,1.2C103.5,28.4,103.7,28.6,103.9,28.7z"/>
	<path class="st0" d="M115.4,52.1c0.4-0.3,0.8-0.5,1-0.6c-0.4,0-0.7,0-1.1-0.1l-1.7-0.3l0.4,1.8L115.4,52.1z"/>
	<path class="st0" d="M30.8,17c0.1,0.3,0.3,0.7,0.4,1l0.4,1.7l1.5-1.1l-1.3-0.9C31.3,17.4,31,17.2,30.8,17z"/>
	<path class="st0" d="M117,70c-0.3-0.1-0.7-0.3-1-0.4l-1.5-0.8l-0.3,1.8l1.6-0.4C116.3,70.1,116.7,70,117,70z"/>
</g>
</svg>
