<?xml version="1.0" encoding="utf-8"?>
<!-- Generator: Adobe Illustrator 25.0.0, SVG Export Plug-In . SVG Version: 6.00 Build 0)  -->
<svg version="1.1" id="Layer_1" xmlns="http://www.w3.org/2000/svg" xmlns:xlink="http://www.w3.org/1999/xlink" x="0px" y="0px"
	 viewBox="0 0 127.6 194.1" style="enable-background:new 0 0 127.6 194.1;" xml:space="preserve">
<style type="text/css">
	.st0{fill:#FFFFFF;}
</style>
<g>
	<path class="st0" d="M90.1,52.1l-5.2,3.7l-7,4.9l-7,4.9l-5.2,3.7l-8.8,6.2v39.1l8.8,6.2l5.2-3.7l7-4.9l7-4.9l5.2-3.7l8.8-6.2V58.3
		L90.1,52.1z M70.8,100V82.8l7-4.9l7-4.9v17.2L70.8,100z"/>
	<polygon class="st0" points="56.8,144.2 65.6,138 70.8,134.3 77.9,129.4 84.9,124.5 90.1,120.8 99,114.6 102.4,112.2 102.4,112.2 
		113,104.8 113,51 102.4,43.5 99,41.1 90.1,35 84.9,38.6 70.8,48.5 65.6,52.1 56.8,58.3 53.3,60.7 42.7,68.2 42.7,173.4 41.1,172.3 
		28.8,163.7 28.6,163.6 28.6,146.7 28.8,146.6 28.6,146.4 28.6,129.5 28.8,129.4 28.6,129.3 28.6,112.4 28.8,112.2 28.6,112.1 
		28.6,95.2 28.8,95.1 28.6,94.9 28.6,78 28.8,77.9 28.6,77.8 28.6,60.8 28.8,60.7 41.1,52.1 42.7,51 53.3,43.5 56.8,41.1 65.6,35 
		70.8,31.3 77.9,26.4 70.8,21.4 65.6,17.8 56.8,24 53.3,26.4 42.7,33.8 41.1,35 41.1,35 28.8,43.5 28.6,43.4 28.6,43.7 16.5,52.1 
		14.6,53.5 14.6,153.8 4.3,146.6 0.5,143.9 0.5,46.2 4.3,43.5 14.6,36.3 16.6,35 28.6,26.5 28.8,26.4 41.1,17.8 42.7,16.7 53.3,9.2 
		56.8,6.8 65.6,0.6 70.8,4.3 84.9,14.1 90.1,17.8 99,24 102.4,26.4 113,33.8 114.6,35 126.9,43.5 127.1,43.7 127.1,60.6 126.9,60.7 
		127.1,60.8 127.1,77.8 126.9,77.9 127.1,78 127.1,94.9 126.9,95.1 127.1,95.2 127.1,112.1 126.9,112.2 114.6,120.8 113,121.9 
		102.4,129.4 99,131.8 90.1,138 84.9,141.6 77.9,146.6 70.8,151.5 70.8,193.2 65.6,189.5 56.8,183.3 56.8,149 	"/>
</g>
</svg>
