<?xml version="1.0" encoding="utf-8"?>
<!-- Generator: Adobe Illustrator 24.2.1, SVG Export Plug-In . SVG Version: 6.00 Build 0)  -->
<svg version="1.1" id="Layer_1" xmlns="http://www.w3.org/2000/svg" xmlns:xlink="http://www.w3.org/1999/xlink" x="0px" y="0px"
	 viewBox="0 0 802.1 76.6" style="enable-background:new 0 0 802.1 76.6;" xml:space="preserve">
<style type="text/css">
	.st0{fill:#FFFFFF;}
</style>
<g>
	<g>
		<path class="st0" d="M0.5,73.4V3.3h37L49.1,10v31.3l-11.6,6.7H14.5v25.4H0.5z M14.5,15.3v20.6h20.5V15.3H14.5z"/>
		<path class="st0" d="M61.1,73.4V3.3h14v70.1H61.1z"/>
		<path class="st0" d="M84.1,73.4l22.6-35.9L85.1,3.3H101L114.7,25l13.8-21.7h15.8l-21.7,34.3l22.7,35.9h-15.8L114.7,50L100,73.4
			H84.1z"/>
		<path class="st0" d="M168.4,43.3v18h27.9v12h-42V3.3h42v12h-27.9v16h21.9v12H168.4z"/>
		<path class="st0" d="M207.3,73.4V3.3h14v58.1h23.9v12H207.3z"/>
		<path class="st0" d="M334,31.1v12h-7.4v24l-11.6,6.7H290l-11.6-6.7V42.2l8.7-5V37l-8.7-5V9.5L290,2.8h20.9l11.6,6.7v14.3h-14v-9
			h-16.1v16.3h14.5v12h-14.5v18.7h20.1v-24l11.6-6.7H334z"/>
		<path class="st0" d="M416.6,32l-8.7,5v0.2l8.7,5v24.4L405,73.4h-38V3.3h38l11.6,6.7V32z M381,15.3v15.8h21.5V15.3H381z M381,43.1
			v18.2h21.5V43.1H381z"/>
		<path class="st0" d="M486.2,67.2l-11.6,6.7h-31.4l-11.6-6.7V9.5l11.6-6.7h31.4l11.6,6.7V67.2z M445.6,14.8v47.1h26.5V14.8H445.6z"
			/>
		<path class="st0" d="M554.4,73.4H539l-15-26.4h-8.7v26.4h-14V3.3h38l11.6,6.7v30.3l-11.6,6.7L554.4,73.4z M515.3,15.3v19.6h21.5
			V15.3H515.3z"/>
		<path class="st0" d="M620.4,66.7l-11.6,6.7h-43V3.3h43l11.6,6.7V66.7z M579.9,15.3v46.1h26.5V15.3H579.9z"/>
		<path class="st0" d="M649.5,43.3v18h27.9v12h-42V3.3h42v12h-27.9v16h21.9v12H649.5z"/>
		<path class="st0" d="M741.6,73.4h-15.4l-15-26.4h-8.7v26.4h-14V3.3h38L738,10v30.3l-11.6,6.7L741.6,73.4z M702.5,15.3v19.6H724
			V15.3H702.5z"/>
		<path class="st0" d="M753.1,37.8V9.5l11.6-6.7H790l11.6,6.7v13.3h-14v-8h-20.5v16.7H790l11.6,6.7v28.9L790,73.9h-26.3l-11.6-6.7
			V53.8h14v8h21.5V44.5h-22.9L753.1,37.8z"/>
	</g>
</g>
</svg>
